HIERARCHY
ROOT Hips
{
 OFFSET 0.000000 0.000000 0.000000
 CHANNELS 6 Xposition Yposition Zposition Yrotation Xrotation Zrotation
 JOINT Chest
 {
  OFFSET 0.000000 9.585900 0.002600
  CHANNELS 3 Yrotation Xrotation Zrotation
  JOINT Chest2
  {
   OFFSET 0.000000 9.601200 -0.005300
   CHANNELS 3 Yrotation Xrotation Zrotation
   JOINT Chest3
   {
    OFFSET 0.000000 9.561800 0.000000
    CHANNELS 3 Yrotation Xrotation Zrotation
    JOINT Chest4
    {
     OFFSET 0.000000 9.552100 0.000000
     CHANNELS 3 Yrotation Xrotation Zrotation
     JOINT Neck
     {
      OFFSET 0.000000 14.453000 0.000000
      CHANNELS 3 Yrotation Xrotation Zrotation
      JOINT Head
      {
       OFFSET 0.000000 8.936500 -0.011300
       CHANNELS 3 Yrotation Xrotation Zrotation
       End Site
       {
        OFFSET 0.000000 17.073600 -0.006000
       }
      }
     }
     JOINT RightCollar
     {
      OFFSET -2.921100 9.558500 0.000000
      CHANNELS 3 Yrotation Xrotation Zrotation
      JOINT RightShoulder
      {
       OFFSET -13.519700 0.000000 0.000000
       CHANNELS 3 Yrotation Xrotation Zrotation
       JOINT RightElbow
       {
        OFFSET 0.000000 -29.696600 0.000000
        CHANNELS 3 Yrotation Xrotation Zrotation
        JOINT RightWrist
        {
         OFFSET 0.000000 -24.004700 0.000000
         CHANNELS 3 Yrotation Xrotation Zrotation
         End Site
         {
          OFFSET 0.000000 -17.728500 0.000000
         }
        }
       }
      }
     }
     JOINT LeftCollar
     {
      OFFSET 2.921100 9.558500 0.000000
      CHANNELS 3 Yrotation Xrotation Zrotation
      JOINT LeftShoulder
      {
       OFFSET 13.519700 0.000000 0.000000
       CHANNELS 3 Yrotation Xrotation Zrotation
       JOINT LeftElbow
       {
        OFFSET 0.000000 -29.696600 0.000000
        CHANNELS 3 Yrotation Xrotation Zrotation
        JOINT LeftWrist
        {
         OFFSET 0.000000 -24.004700 0.000000
         CHANNELS 3 Yrotation Xrotation Zrotation
         End Site
         {
          OFFSET 0.000000 -17.728500 0.000000
         }
        }
       }
      }
     }
    }
   }
  }
 }
 JOINT RightHip
 {
  OFFSET -7.771700 -0.012900 -0.001300
  CHANNELS 3 Yrotation Xrotation Zrotation
  JOINT RightKnee
  {
   OFFSET 0.000000 -40.869800 0.001200
   CHANNELS 3 Yrotation Xrotation Zrotation
   JOINT RightAnkle
   {
    OFFSET 0.000000 -39.717900 0.002100
    CHANNELS 3 Yrotation Xrotation Zrotation
    JOINT RightToe
    {
     OFFSET 0.000000 -4.965400 11.033500
     CHANNELS 3 Yrotation Xrotation Zrotation
     End Site
     {
      OFFSET 0.000000 -1.423100 5.872300
     }
    }
   }
  }
 }
 JOINT LeftHip
 {
  OFFSET 7.771700 -0.012900 -0.001300
  CHANNELS 3 Yrotation Xrotation Zrotation
  JOINT LeftKnee
  {
   OFFSET 0.000000 -40.869800 0.001200
   CHANNELS 3 Yrotation Xrotation Zrotation
   JOINT LeftAnkle
   {
    OFFSET 0.000000 -39.717900 0.002100
    CHANNELS 3 Yrotation Xrotation Zrotation
    JOINT LeftToe
    {
     OFFSET 0.000000 -4.965400 11.033500
     CHANNELS 3 Yrotation Xrotation Zrotation
     End Site
     {
      OFFSET 0.000000 -1.423100 5.872300
     }
    }
   }
  }
 }
}
MOTION
Frames: 11
Frame Time: 0.008333
0.000000 85.388000 0.000000 0.000000 -5.767877 0.000000 0.000000 11.653817 0.000000 0.000000 -5.885947 0.000000 0.000000 -0.000000 0.000000 0.000000 -0.000000 0.000000 0.000000 12.528835 0.000000 0.000000 0.711642 0.000000 0.000000 -0.000000 0.000000 0.000000 0.000000 -90.000000 0.000000 -2.309062 0.000000 0.000000 2.309062 0.000000 0.000000 -0.000000 0.000000 0.000000 -0.000000 90.000000 0.000000 -2.309062 0.000000 0.000000 2.309062 0.000000 0.000000 8.520406 0.000000 0.000000 1.905762 0.000000 -0.000000 -4.658285 0.000000 0.000000 -0.000000 0.000000 0.000000 8.520406 0.000000 0.000000 1.905762 0.000000 -0.000000 -4.658285 0.000000 0.000000 -0.000000 0.000000
-179.812231 49.012603 13.440324 175.766475 -32.680776 -3.837596 -0.267863 19.568156 2.844876 -0.093855 2.388946 0.327852 -0.125497 3.934036 0.531475 -0.283518 16.891067 2.273729 5.131560 15.953158 -2.795895 10.457535 -5.776795 -6.979249 -1.318138 -2.575179 -2.534016 4.677243 -10.782001 -15.091884 -37.449678 -50.416809 88.851224 5.396992 9.612068 -15.344105 -0.057595 -2.605963 2.924416 -7.186529 -3.047896 13.328641 106.212267 -81.624700 -139.914112 -0.248608 10.094115 3.408491 -1.934857 -52.399694 -6.658498 -167.383833 81.619619 -155.634754 -29.513655 -3.033840 -2.409209 -0.228989 -12.152546 1.199749 -13.259119 -53.907060 20.248933 -72.285169 65.114753 -77.730996 30.788810 8.422142 16.021514 0.128471 -0.144349 0.051590
-179.816872 49.011345 13.443657 175.772704 -32.674810 -3.839040 -0.269381 19.563580 2.843245 -0.070221 2.392792 0.320343 -0.111642 3.935491 0.527018 -0.287288 16.888830 2.282764 5.139200 15.968048 -2.782880 10.481391 -5.736449 -6.952189 -1.328852 -2.600315 -2.524483 4.720807 -10.795491 -15.152335 -37.477556 -50.378482 88.874570 5.378117 9.605443 -15.364521 -0.081419 -2.615670 2.921018 -7.159949 -3.051458 13.330735 106.071213 -81.624950 -139.797597 -0.245713 10.077938 3.417422 -1.935316 -52.408924 -6.661531 -167.536346 81.631324 -155.796397 -29.505048 -3.028144 -2.420448 -0.217488 -12.147969 1.207385 -13.263471 -53.914739 20.237843 -72.278827 65.120652 -77.715253 30.785863 8.422345 16.021735 0.130449 -0.139662 0.047604
-179.821624 49.010471 13.446789 175.776197 -32.674796 -3.841469 -0.255526 19.562803 2.842758 -0.076993 2.393268 0.323451 -0.110635 3.936472 0.527144 -0.265468 16.890851 2.276378 5.132686 15.973224 -2.765627 10.500164 -5.709897 -6.937350 -1.337352 -2.624491 -2.512130 4.713978 -10.783694 -15.160585 -37.454907 -50.396203 88.878506 5.389469 9.622564 -15.368561 -0.105116 -2.622433 2.923736 -7.152139 -3.051153 13.340924 105.937191 -81.611490 -139.671855 -0.262569 10.074063 3.416892 -1.932364 -52.411726 -6.658465 -167.659566 81.644885 -155.931535 -29.495020 -3.016575 -2.435242 -0.242634 -12.143335 1.228541 -13.257237 -53.923145 20.218037 -72.287120 65.132247 -77.710008 30.794960 8.429358 16.023600 0.123425 -0.144999 0.044501
-179.825355 49.009630 13.450316 175.773477 -32.676744 -3.848782 -0.224326 19.565091 2.848057 -0.085015 2.394023 0.330802 -0.116941 3.935839 0.529693 -0.246839 16.895282 2.269837 5.129287 15.976226 -2.749632 10.552028 -5.657035 -6.916725 -1.327595 -2.667877 -2.517030 4.691290 -10.755789 -15.151379 -37.445793 -50.405614 88.882814 5.459450 9.663344 -15.333004 -0.124130 -2.632972 2.918897 -7.155667 -3.046680 13.361078 105.807823 -81.592451 -139.545810 -0.248136 10.056973 3.440941 -1.909905 -52.414306 -6.655800 -167.725501 81.655386 -155.995150 -29.502880 -2.995999 -2.445864 -0.201201 -12.145646 1.235701 -13.261757 -53.922567 20.224374 -72.287945 65.135414 -77.701398 30.792377 8.432127 16.019389 0.125817 -0.143485 0.045273
-179.829956 49.008555 13.454134 175.774959 -32.678258 -3.854177 -0.211373 19.565535 2.849972 -0.079204 2.396025 0.325978 -0.104945 3.939522 0.525340 -0.247485 16.895947 2.277440 5.144851 15.991189 -2.736043 10.597632 -5.615008 -6.891983 -1.334931 -2.687905 -2.508479 4.743698 -10.764597 -15.198696 -37.511495 -50.356004 88.902518 5.523364 9.687762 -15.293855 -0.140747 -2.644798 2.907628 -7.151029 -3.044085 13.382537 105.677120 -81.577568 -139.428502 -0.227900 10.040000 3.469098 -1.897592 -52.418933 -6.654196 -167.775096 81.669583 -156.044447 -29.540299 -2.969467 -2.450600 -0.139674 -12.153630 1.233970 -13.252665 -53.932121 20.213822 -72.305149 65.143500 -77.706504 30.793728 8.438521 16.024854 0.121792 -0.150578 0.044115
-179.834608 49.007432 13.457957 175.778879 -32.680968 -3.860633 -0.199138 19.566738 2.853100 -0.085369 2.397255 0.328416 -0.103422 3.940452 0.525439 -0.218795 16.903949 2.268179 5.154184 16.003089 -2.713705 10.635061 -5.584548 -6.874927 -1.364957 -2.702416 -2.487281 4.747726 -10.763536 -15.203598 -37.466735 -50.426071 88.903255 5.465144 9.667683 -15.321187 -0.174710 -2.657440 2.919412 -7.145545 -3.048523 13.390483 105.567609 -81.565924 -139.328793 -0.186320 10.012700 3.494865 -1.886684 -52.423053 -6.655462 -167.850428 81.678801 -156.120563 -29.564975 -2.945608 -2.451282 -0.195506 -12.159865 1.252938 -13.251481 -53.933735 20.214090 -72.303586 65.146633 -77.700412 30.789577 8.441044 16.033309 0.122364 -0.151352 0.041931
-179.839452 49.006092 13.461916 175.778348 -32.683251 -3.863003 -0.184402 19.565856 2.855004 -0.082973 2.400306 0.327303 -0.109503 3.940783 0.528739 -0.214669 16.905177 2.267472 5.185288 16.022801 -2.708311 10.675849 -5.549790 -6.858927 -1.359505 -2.727668 -2.491887 4.759839 -10.755579 -15.216048 -37.455755 -50.454669 88.908140 5.467796 9.664891 -15.321338 -0.186376 -2.663594 2.915068 -7.143782 -3.048687 13.397006 105.524931 -81.567153 -139.289566 -0.168617 10.003385 3.504423 -1.879363 -52.427144 -6.653092 -167.882275 81.686535 -156.163184 -29.569991 -2.923512 -2.446461 -0.194001 -12.163527 1.254444 -13.245857 -53.936853 20.212787 -72.307478 65.149430 -77.700952 30.787165 8.442718 16.036696 0.123691 -0.153049 0.044985
-179.844380 49.004951 13.465284 175.778239 -32.689332 -3.863644 -0.172315 19.567446 2.854080 -0.070672 2.399504 0.323175 -0.116586 3.945386 0.533304 -0.184706 16.906662 2.255430 5.194642 16.040110 -2.678649 10.721382 -5.510335 -6.846052 -1.366775 -2.776011 -2.477240 4.793156 -10.739880 -15.252648 -37.492549 -50.440005 88.919407 5.478737 9.665065 -15.317317 -0.234513 -2.672468 2.923083 -7.141322 -3.055505 13.416544 105.363254 -81.558683 -139.133412 -0.150386 9.989746 3.515232 -1.870098 -52.427997 -6.652583 -168.111172 81.706298 -156.402966 -29.605679 -2.899690 -2.440388 -0.179413 -12.168515 1.253347 -13.243261 -53.935400 20.211771 -72.305903 65.154441 -77.700298 30.785826 8.447147 16.037262 0.128609 -0.159508 0.052035
-179.848824 49.003947 13.468242 175.780590 -32.697828 -3.866468 -0.164975 19.570068 2.852088 -0.075274 2.404088 0.327967 -0.105092 3.943085 0.527725 -0.186936 16.909007 2.258376 5.229695 16.061243 -2.674519 10.780910 -5.461831 -6.837302 -1.359355 -2.800112 -2.473575 4.812827 -10.731870 -15.272969 -37.495681 -50.459141 88.919869 5.473832 9.660857 -15.318184 -0.251842 -2.683796 2.900873 -7.152410 -3.083975 13.446415 105.046590 -81.553754 -138.821218 -0.102203 9.958978 3.528122 -1.855379 -52.422300 -6.660465 -168.222561 81.716980 -156.513853 -29.623309 -2.888628 -2.440969 -0.184831 -12.167365 1.259906 -13.243931 -53.930272 20.212886 -72.301119 65.158467 -77.697379 30.783921 8.452277 16.038986 0.130831 -0.162421 0.054107
-179.852850 49.003355 13.470344 175.777886 -32.712068 -3.866163 -0.158250 19.580553 2.850797 -0.068861 2.403639 0.325227 -0.095528 3.934270 0.517944 -0.191707 16.920767 2.270480 5.321890 16.107286 -2.679517 10.805261 -5.430825 -6.816994 -1.353567 -2.824597 -2.470140 4.831331 -10.728266 -15.291039 -37.491598 -50.478346 88.910262 5.470408 9.655293 -15.317585 -0.273910 -2.702533 2.872539 -7.152938 -3.081306 13.486954 104.876641 -81.547244 -138.659969 -0.095070 9.953364 3.541065 -1.833689 -52.410202 -6.669871 -168.287509 81.724797 -156.575861 -29.639395 -2.881861 -2.442171 -0.185860 -12.163534 1.266360 -13.237789 -53.917330 20.210428 -72.297310 65.159512 -77.694609 30.786475 8.454241 16.038634 0.130277 -0.162702 0.055605
